<svg width="70" height="70" viewBox="0 0 70 70" fill="none" xmlns="http://www.w3.org/2000/svg">
<path d="M58.3333 8.75H11.6667C5.25 8.75 0 14 0 20.4167V49.5833C0 56 5.25 61.25 11.6667 61.25H58.3333C64.75 61.25 70 56 70 49.5833V20.4167C70 14 64.75 8.75 58.3333 8.75ZM63 25.6667L39.9583 41.125C38.5 42 36.75 42.5833 35 42.5833C33.25 42.5833 31.5 42 30.0417 41.125L7 25.6667C5.83333 24.7917 5.54167 23.0417 6.41667 21.5833C7.29167 20.4167 9.04167 20.125 10.5 21L33.5417 36.4583C34.4167 37.0417 35.875 37.0417 36.75 36.4583L59.7917 21C61.25 20.125 63 20.4167 63.875 21.875C64.4583 23.0417 64.1667 24.7917 63 25.6667Z" fill="#464646"/>
</svg>
