<svg width="50" height="50" viewBox="0 0 50 50" fill="none" xmlns="http://www.w3.org/2000/svg">
<path d="M41.6667 6.25H8.33333C3.75 6.25 0 10 0 14.5833V35.4167C0 40 3.75 43.75 8.33333 43.75H41.6667C46.25 43.75 50 40 50 35.4167V14.5833C50 10 46.25 6.25 41.6667 6.25ZM45 18.3333L28.5417 29.375C27.5 30 26.25 30.4167 25 30.4167C23.75 30.4167 22.5 30 21.4583 29.375L5 18.3333C4.16667 17.7083 3.95833 16.4583 4.58333 15.4167C5.20833 14.5833 6.45833 14.375 7.5 15L23.9583 26.0417C24.5833 26.4583 25.625 26.4583 26.25 26.0417L42.7083 15C43.75 14.375 45 14.5833 45.625 15.625C46.0417 16.4583 45.8333 17.7083 45 18.3333Z" fill="black"/>
</svg>
