<svg width="60" height="60" viewBox="0 0 60 60" fill="none" xmlns="http://www.w3.org/2000/svg">
<path d="M50.4375 17.2266H42.5273L37.793 12.4453C37.793 12.4453 37.7695 12.4219 37.7578 12.4219L37.7344 12.3984C37.0312 11.6953 36.082 11.25 35.0039 11.25H25.1602C24.0117 11.25 22.9922 11.7422 22.2773 12.5273V12.5391L17.6484 17.2266H9.5625C7.38281 17.2266 5.625 18.9375 5.625 21.1172V44.8008C5.625 46.9805 7.38281 48.75 9.5625 48.75H50.4375C52.6055 48.75 54.375 46.9805 54.375 44.8008V21.1172C54.375 18.9375 52.6055 17.2266 50.4375 17.2266ZM30 42.832C24.0352 42.832 19.1719 37.957 19.1719 31.9805C19.1719 25.9922 24.0352 21.1289 30 21.1289C35.9766 21.1289 40.8281 25.9922 40.8281 31.9805C40.8281 37.957 35.9766 42.832 30 42.832ZM49.6992 23.4961C48.7969 23.4961 48.0586 22.7578 48.0586 21.8437C48.0586 20.9297 48.7969 20.1914 49.6992 20.1914C50.6016 20.1914 51.3398 20.9297 51.3398 21.8437C51.3398 22.7578 50.6016 23.4961 49.6992 23.4961Z" fill="black"/>
<path d="M30 23.7773C25.4766 23.7773 21.8203 27.4453 21.8203 31.9805C21.8203 36.5039 25.4766 40.1836 30 40.1836C34.5117 40.1836 38.1797 36.5156 38.1797 31.9805C38.1797 27.4453 34.5117 23.7773 30 23.7773Z" fill="black"/>
</svg>
