<svg width="70" height="70" viewBox="0 0 70 70" fill="none" xmlns="http://www.w3.org/2000/svg">
<path d="M58.8438 20.0977H49.6152L44.0918 14.5195C44.0918 14.5195 44.0645 14.4922 44.0508 14.4922L44.0234 14.4648C43.2031 13.6445 42.0957 13.125 40.8379 13.125H29.3535C28.0137 13.125 26.8242 13.6992 25.9902 14.6152V14.6289L20.5898 20.0977H11.1562C8.61328 20.0977 6.5625 22.0938 6.5625 24.6367V52.2676C6.5625 54.8105 8.61328 56.875 11.1562 56.875H58.8438C61.373 56.875 63.4375 54.8105 63.4375 52.2676V24.6367C63.4375 22.0938 61.373 20.0977 58.8438 20.0977ZM35 49.9707C28.041 49.9707 22.3672 44.2832 22.3672 37.3105C22.3672 30.3242 28.041 24.6504 35 24.6504C41.9727 24.6504 47.6328 30.3242 47.6328 37.3105C47.6328 44.2832 41.9727 49.9707 35 49.9707ZM57.9824 27.4121C56.9297 27.4121 56.0684 26.5508 56.0684 25.4844C56.0684 24.418 56.9297 23.5566 57.9824 23.5566C59.0352 23.5566 59.8965 24.418 59.8965 25.4844C59.8965 26.5508 59.0352 27.4121 57.9824 27.4121Z" fill="#464646"/>
<path d="M35 27.7402C29.7227 27.7402 25.457 32.0195 25.457 37.3105C25.457 42.5879 29.7227 46.8809 35 46.8809C40.2637 46.8809 44.543 42.6016 44.543 37.3105C44.543 32.0195 40.2637 27.7402 35 27.7402Z" fill="#464646"/>
</svg>
