<svg width="40" height="40" viewBox="0 0 40 40" fill="none" xmlns="http://www.w3.org/2000/svg">
<path d="M33.1641 16.9141H31.9766C31.0078 16.9141 30.1953 16.0781 30.1953 15.0859C30.1953 14.5859 30.4063 14.1328 30.7813 13.7969L31.5469 13.0469C32.3047 12.2969 32.3047 11.0703 31.5469 10.3203L29.8047 8.59375C29.4609 8.25 28.9531 8.04688 28.4375 8.04688C27.9219 8.04688 27.4219 8.25 27.0703 8.59375L26.3359 9.32812C25.9844 9.71875 25.5156 9.92969 25.0078 9.92969C24.0078 9.92969 23.1719 9.11719 23.1719 8.15625V6.96094C23.1719 5.90625 22.3203 5 21.2578 5H18.8828C17.8203 5 16.9766 5.89844 16.9766 6.96094V8.14844C16.9766 9.10938 16.1406 9.92188 15.1406 9.92188C14.6406 9.92188 14.1797 9.71094 13.8438 9.34375L13.0859 8.59375C12.7422 8.24219 12.2344 8.04688 11.7188 8.04688C11.2031 8.04688 10.7031 8.25 10.3516 8.59375L8.59375 10.3125C7.84375 11.0625 7.84375 12.2891 8.59375 13.0312L9.32813 13.7656C9.71875 14.1172 9.9375 14.5859 9.9375 15.0859C9.9375 16.0859 9.125 16.9141 8.15625 16.9141H6.96875C5.89844 16.9141 5 17.75 5 18.8125V20V21.1875C5 22.2422 5.89844 23.0859 6.96875 23.0859H8.15625C9.125 23.0859 9.9375 23.9219 9.9375 24.9141C9.9375 25.4141 9.71875 25.8828 9.32813 26.2344L8.59375 26.9609C7.84375 27.7109 7.84375 28.9375 8.59375 29.6797L10.3359 31.4141C10.6797 31.7656 11.1875 31.9609 11.7031 31.9609C12.2188 31.9609 12.7188 31.7578 13.0703 31.4141L13.8281 30.6641C14.1563 30.2969 14.625 30.0859 15.125 30.0859C16.125 30.0859 16.9609 30.8984 16.9609 31.8594V33.0469C16.9609 34.1016 17.8047 35.0078 18.875 35.0078H21.25C22.3125 35.0078 23.1563 34.1094 23.1563 33.0469V31.8594C23.1563 30.8984 23.9922 30.0859 24.9922 30.0859C25.4922 30.0859 25.9609 30.3047 26.3203 30.6875L27.0547 31.4219C27.4063 31.7656 27.9063 31.9688 28.4219 31.9688C28.9375 31.9688 29.4375 31.7656 29.7891 31.4219L31.5313 29.6875C32.2813 28.9375 32.2813 27.7109 31.5313 26.9609L30.7656 26.2109C30.3906 25.875 30.1797 25.4141 30.1797 24.9219C30.1797 23.9219 30.9922 23.0938 31.9609 23.0938H33.1484C34.2109 23.0938 34.9688 22.2578 34.9688 21.1953V20V18.8125C34.9844 17.75 34.2266 16.9141 33.1641 16.9141ZM26.3125 20C26.3125 23.4453 23.5234 26.25 20.0625 26.25C16.6016 26.25 13.8125 23.4453 13.8125 20C13.8125 16.5547 16.6016 13.75 20.0625 13.75C23.5234 13.75 26.3125 16.5547 26.3125 20Z" fill="#3F90F0"/>
</svg>
