<svg width="55" height="55" viewBox="0 0 55 55" fill="none" xmlns="http://www.w3.org/2000/svg">
<path d="M27.5 49.8438C23.0808 49.8438 18.7609 48.5333 15.0865 46.0782C11.4121 43.623 8.54822 40.1334 6.85708 36.0506C5.16593 31.9678 4.72345 27.4752 5.58559 23.141C6.44773 18.8067 8.57576 14.8254 11.7006 11.7006C14.8254 8.57576 18.8067 6.44773 23.141 5.58559C27.4752 4.72345 31.9678 5.16593 36.0506 6.85708C40.1334 8.54822 43.623 11.4121 46.0782 15.0865C48.5333 18.7609 49.8438 23.0808 49.8438 27.5C49.8438 33.4259 47.4897 39.1092 43.2994 43.2994C39.1092 47.4897 33.4259 49.8438 27.5 49.8438ZM27.5 8.59376C23.7607 8.59376 20.1054 9.70259 16.9963 11.78C13.8871 13.8575 11.4639 16.8102 10.0329 20.2649C8.60194 23.7196 8.22754 27.521 8.95704 31.1884C9.68654 34.8559 11.4872 38.2247 14.1313 40.8688C16.7754 43.5128 20.1441 45.3135 23.8116 46.043C27.479 46.7725 31.2805 46.3981 34.7351 44.9671C38.1898 43.5361 41.1425 41.1129 43.22 38.0038C45.2974 34.8946 46.4063 31.2393 46.4063 27.5C46.4063 22.4858 44.4144 17.6769 40.8688 14.1313C37.3231 10.5857 32.5143 8.59376 27.5 8.59376Z" fill="black"/>
<path d="M27.5 39.5312C27.0442 39.5312 26.607 39.3502 26.2847 39.0278C25.9623 38.7055 25.7812 38.2683 25.7812 37.8125V17.1875C25.7812 16.7317 25.9623 16.2945 26.2847 15.9722C26.607 15.6498 27.0442 15.4688 27.5 15.4688C27.9558 15.4688 28.393 15.6498 28.7153 15.9722C29.0377 16.2945 29.2188 16.7317 29.2188 17.1875V37.8125C29.2188 38.2683 29.0377 38.7055 28.7153 39.0278C28.393 39.3502 27.9558 39.5312 27.5 39.5312Z" fill="black"/>
<path d="M37.8125 29.2188H17.1875C16.7317 29.2188 16.2945 29.0377 15.9722 28.7153C15.6498 28.393 15.4688 27.9558 15.4688 27.5C15.4688 27.0442 15.6498 26.607 15.9722 26.2847C16.2945 25.9623 16.7317 25.7812 17.1875 25.7812H37.8125C38.2683 25.7812 38.7055 25.9623 39.0278 26.2847C39.3502 26.607 39.5312 27.0442 39.5312 27.5C39.5312 27.9558 39.3502 28.393 39.0278 28.7153C38.7055 29.0377 38.2683 29.2188 37.8125 29.2188Z" fill="black"/>
</svg>
