<svg width="55" height="55" viewBox="0 0 55 55" fill="none" xmlns="http://www.w3.org/2000/svg">
<path d="M27.5002 27.5C32.5628 27.5 36.6668 23.396 36.6668 18.3334C36.6668 13.2707 32.5628 9.16669 27.5002 9.16669C22.4376 9.16669 18.3335 13.2707 18.3335 18.3334C18.3335 23.396 22.4376 27.5 27.5002 27.5Z" fill="black"/>
<path d="M45.8332 43.5417V45.8334C45.8332 46.4411 45.5917 47.024 45.162 47.4538C44.7322 47.8836 44.1493 48.125 43.5415 48.125H11.4582C10.8504 48.125 10.2675 47.8836 9.83772 47.4538C9.40795 47.024 9.1665 46.4411 9.1665 45.8334V43.5417C9.1665 39.895 10.6152 36.3976 13.1938 33.819C15.7724 31.2403 19.2698 29.7917 22.9165 29.7917H32.0832C35.7299 29.7917 39.2273 31.2403 41.8059 33.819C44.3845 36.3976 45.8332 39.895 45.8332 43.5417Z" fill="black"/>
</svg>
